STARTFONT 2.1
COMMENT
COMMENT Converted from OpenType font "Aldrich-Regular.ttf" by "otf2bdf 3.0".
COMMENT
FONT -FreeType-Aldrich-Medium-R-Normal--21-210-72-72-P-101-ISO10646-1
SIZE 21 72 72
FONTBOUNDINGBOX 24 27 -1 -8
STARTPROPERTIES 19
FOUNDRY "FreeType"
FAMILY_NAME "Aldrich"
WEIGHT_NAME "Medium"
SLANT "R"
SETWIDTH_NAME "Normal"
ADD_STYLE_NAME ""
PIXEL_SIZE 21
POINT_SIZE 210
RESOLUTION_X 72
RESOLUTION_Y 72
SPACING "P"
AVERAGE_WIDTH 101
CHARSET_REGISTRY "ISO10646"
CHARSET_ENCODING "1"
FONT_ASCENT 15
FONT_DESCENT 4
COPYRIGHT "Copyright (c) Matthew Desmond, 2011. All rights reserved."
_OTF_FONTFILE "Aldrich-Regular.ttf"
_OTF_PSNAME "Aldrich-Regular"
ENDPROPERTIES
CHARS 248
STARTCHAR 0020
ENCODING 32
SWIDTH 285 0
DWIDTH 6 0
BBX 0 0 0 0
BITMAP
ENDCHAR
STARTCHAR 0021
ENCODING 33
SWIDTH 285 0
DWIDTH 6 0
BBX 4 15 1 0
BITMAP
60
60
60
60
60
60
60
60
60
00
00
00
F0
F0
F0
ENDCHAR
STARTCHAR 0022
ENCODING 34
SWIDTH 476 0
DWIDTH 10 0
BBX 7 7 2 8
BITMAP
CE
CE
CE
CC
CC
CC
CC
ENDCHAR
STARTCHAR 0023
ENCODING 35
SWIDTH 761 0
DWIDTH 16 0
BBX 12 15 2 0
BITMAP
1860
1860
1840
1840
FFF0
FFF0
10C0
30C0
30C0
3080
FFF0
FFF0
3180
2180
6180
ENDCHAR
STARTCHAR 0024
ENCODING 36
SWIDTH 666 0
DWIDTH 14 0
BBX 12 19 1 -2
BITMAP
0600
0600
7FE0
7FF0
6630
6630
6600
6600
6600
7FE0
7FF0
0630
0630
E630
E630
7FF0
7FE0
0600
0600
ENDCHAR
STARTCHAR 0025
ENCODING 37
SWIDTH 952 0
DWIDTH 20 0
BBX 18 15 1 0
BITMAP
7C0600
7E0C00
C60C00
C61800
C63000
C66000
7E6000
7CCF80
019FC0
0198C0
0318C0
0618C0
0618C0
0C1FC0
180F80
ENDCHAR
STARTCHAR 0026
ENCODING 38
SWIDTH 761 0
DWIDTH 16 0
BBX 14 15 1 0
BITMAP
3FC0
7FE0
6060
6060
6000
6000
6000
3FFC
7FFC
6060
E060
E060
6060
7FFC
3F9C
ENDCHAR
STARTCHAR 0027
ENCODING 39
SWIDTH 285 0
DWIDTH 6 0
BBX 2 7 2 8
BITMAP
C0
C0
C0
C0
C0
C0
C0
ENDCHAR
STARTCHAR 0028
ENCODING 40
SWIDTH 380 0
DWIDTH 8 0
BBX 6 20 1 -4
BITMAP
1C
3C
70
60
E0
E0
E0
E0
E0
E0
E0
E0
E0
E0
E0
E0
60
70
3C
1C
ENDCHAR
STARTCHAR 0029
ENCODING 41
SWIDTH 380 0
DWIDTH 8 0
BBX 6 20 1 -4
BITMAP
E0
F0
38
18
0C
0C
0C
0C
0C
0C
0C
0C
0C
0C
0C
0C
18
38
F0
E0
ENDCHAR
STARTCHAR 002A
ENCODING 42
SWIDTH 571 0
DWIDTH 12 0
BBX 9 9 1 6
BITMAP
0C00
0C00
8C80
FF80
3F00
1C00
1600
3300
6200
ENDCHAR
STARTCHAR 002B
ENCODING 43
SWIDTH 714 0
DWIDTH 15 0
BBX 11 12 2 0
BITMAP
0C00
0C00
0C00
0C00
0C00
FFE0
FFE0
0C00
0C00
0C00
0C00
0C00
ENDCHAR
STARTCHAR 002C
ENCODING 44
SWIDTH 285 0
DWIDTH 6 0
BBX 3 6 2 -3
BITMAP
E0
E0
E0
40
C0
80
ENDCHAR
STARTCHAR 002D
ENCODING 45
SWIDTH 380 0
DWIDTH 8 0
BBX 5 2 2 5
BITMAP
F8
F8
ENDCHAR
STARTCHAR 002E
ENCODING 46
SWIDTH 285 0
DWIDTH 6 0
BBX 3 3 2 0
BITMAP
E0
E0
E0
ENDCHAR
STARTCHAR 002F
ENCODING 47
SWIDTH 428 0
DWIDTH 9 0
BBX 7 17 1 -1
BITMAP
06
06
06
0C
0C
0C
18
18
18
30
30
30
60
60
60
C0
C0
ENDCHAR
STARTCHAR 0030
ENCODING 48
SWIDTH 714 0
DWIDTH 15 0
BBX 11 15 2 0
BITMAP
7FE0
FFE0
C060
C060
C060
C060
C060
C060
C060
C060
C060
C060
C060
FFE0
7FE0
ENDCHAR
STARTCHAR 0031
ENCODING 49
SWIDTH 333 0
DWIDTH 7 0
BBX 4 15 1 0
BITMAP
F0
F0
30
30
30
30
30
30
30
30
30
30
30
30
30
ENDCHAR
STARTCHAR 0032
ENCODING 50
SWIDTH 666 0
DWIDTH 14 0
BBX 11 15 2 0
BITMAP
FFC0
FFC0
C0E0
C0E0
00E0
00E0
03C0
0F80
3E00
F000
C000
C060
C060
FFE0
FFE0
ENDCHAR
STARTCHAR 0033
ENCODING 51
SWIDTH 666 0
DWIDTH 14 0
BBX 12 15 1 0
BITMAP
3FC0
7FE0
E060
C060
0060
0060
0060
0FC0
0FE0
0060
0070
C070
C060
FFE0
7FC0
ENDCHAR
STARTCHAR 0034
ENCODING 52
SWIDTH 619 0
DWIDTH 13 0
BBX 12 15 0 0
BITMAP
01C0
01C0
03C0
06C0
0EC0
0CC0
18C0
30C0
70C0
60C0
FFF0
FFF0
00C0
00C0
00C0
ENDCHAR
STARTCHAR 0035
ENCODING 53
SWIDTH 619 0
DWIDTH 13 0
BBX 11 15 1 0
BITMAP
FFE0
FFE0
E000
E000
E000
E000
FFC0
FFE0
0060
0060
0060
C060
C060
FFE0
7FC0
ENDCHAR
STARTCHAR 0036
ENCODING 54
SWIDTH 714 0
DWIDTH 15 0
BBX 11 15 2 0
BITMAP
7FC0
FFE0
C060
C060
C000
C000
C000
FFC0
FFE0
C060
C060
C060
C060
FFE0
7FC0
ENDCHAR
STARTCHAR 0037
ENCODING 55
SWIDTH 571 0
DWIDTH 12 0
BBX 11 15 1 0
BITMAP
FFE0
FFE0
00C0
01C0
0180
0380
0300
0700
0600
0E00
0C00
1C00
1800
3800
7000
ENDCHAR
STARTCHAR 0038
ENCODING 56
SWIDTH 666 0
DWIDTH 14 0
BBX 12 15 1 0
BITMAP
3FC0
7FE0
6070
6030
6030
6030
6060
3FE0
7FE0
6030
E030
E030
6030
7FF0
3FE0
ENDCHAR
STARTCHAR 0039
ENCODING 57
SWIDTH 714 0
DWIDTH 15 0
BBX 11 15 2 0
BITMAP
7FC0
FFE0
C060
C060
C060
C060
C060
FFE0
7FE0
0060
0060
C060
C060
FFE0
7FC0
ENDCHAR
STARTCHAR 003A
ENCODING 58
SWIDTH 285 0
DWIDTH 6 0
BBX 3 11 2 0
BITMAP
E0
E0
E0
00
00
00
00
00
E0
E0
E0
ENDCHAR
STARTCHAR 003B
ENCODING 59
SWIDTH 285 0
DWIDTH 6 0
BBX 3 14 2 -3
BITMAP
E0
E0
E0
00
00
00
00
00
E0
E0
E0
40
C0
80
ENDCHAR
STARTCHAR 003C
ENCODING 60
SWIDTH 666 0
DWIDTH 14 0
BBX 11 12 1 0
BITMAP
0020
00E0
07C0
1F00
7C00
E000
E000
7C00
1F00
07C0
00E0
0020
ENDCHAR
STARTCHAR 003D
ENCODING 61
SWIDTH 714 0
DWIDTH 15 0
BBX 11 7 2 2
BITMAP
FFE0
FFE0
0000
0000
0000
FFE0
FFE0
ENDCHAR
STARTCHAR 003E
ENCODING 62
SWIDTH 666 0
DWIDTH 14 0
BBX 11 12 2 0
BITMAP
8000
E000
7C00
1F00
07C0
00E0
00E0
07C0
1F00
7C00
E000
8000
ENDCHAR
STARTCHAR 003F
ENCODING 63
SWIDTH 571 0
DWIDTH 12 0
BBX 10 15 1 0
BITMAP
7F80
FF80
C1C0
C1C0
0180
0780
1E00
1800
1800
0000
0000
0000
1C00
1C00
1C00
ENDCHAR
STARTCHAR 0040
ENCODING 64
SWIDTH 1047 0
DWIDTH 22 0
BBX 18 19 2 -4
BITMAP
1FFF00
7FFF80
E001C0
C000C0
C000C0
C7F8C0
C7F8C0
C618C0
C618C0
C618C0
C618C0
C618C0
C618C0
C7FFC0
C7EFC0
C00000
E00000
7FFF00
1FFE00
ENDCHAR
STARTCHAR 0041
ENCODING 65
SWIDTH 714 0
DWIDTH 15 0
BBX 13 15 1 0
BITMAP
0700
0700
0F00
0F80
0D80
1D80
18C0
38C0
30E0
3060
7FE0
7FF0
6030
C030
C018
ENDCHAR
STARTCHAR 0042
ENCODING 66
SWIDTH 714 0
DWIDTH 15 0
BBX 12 15 2 0
BITMAP
FFC0
FFE0
C060
C060
C060
C060
C060
FFC0
FFE0
C060
C060
C070
C060
FFE0
FFC0
ENDCHAR
STARTCHAR 0043
ENCODING 67
SWIDTH 761 0
DWIDTH 16 0
BBX 12 15 2 0
BITMAP
7FE0
FFF0
C030
C030
C000
C000
C000
C000
C000
C000
C000
C030
C030
FFF0
7FE0
ENDCHAR
STARTCHAR 0044
ENCODING 68
SWIDTH 761 0
DWIDTH 16 0
BBX 13 15 2 0
BITMAP
FFC0
FFE0
C070
C030
C030
C038
C038
C038
C038
C038
C030
C030
C070
FFE0
FFC0
ENDCHAR
STARTCHAR 0045
ENCODING 69
SWIDTH 666 0
DWIDTH 14 0
BBX 11 15 2 0
BITMAP
FFE0
FFE0
C000
C000
C000
C000
C000
FF80
FF80
C000
C000
C000
C000
FFE0
FFE0
ENDCHAR
STARTCHAR 0046
ENCODING 70
SWIDTH 666 0
DWIDTH 14 0
BBX 11 15 2 0
BITMAP
FFE0
FFE0
C000
C000
C000
C000
C000
FF80
FF80
C000
C000
C000
C000
C000
C000
ENDCHAR
STARTCHAR 0047
ENCODING 71
SWIDTH 761 0
DWIDTH 16 0
BBX 12 15 2 0
BITMAP
7FE0
FFF0
C030
C030
C000
C000
C000
C3F0
C3F0
C030
C030
C030
C030
FFF0
7FE0
ENDCHAR
STARTCHAR 0048
ENCODING 72
SWIDTH 761 0
DWIDTH 16 0
BBX 13 15 2 0
BITMAP
C038
C038
C038
C038
C038
C038
C038
FFF8
FFF8
C038
C038
C038
C038
C038
C038
ENDCHAR
STARTCHAR 0049
ENCODING 73
SWIDTH 285 0
DWIDTH 6 0
BBX 2 15 2 0
BITMAP
C0
C0
C0
C0
C0
C0
C0
C0
C0
C0
C0
C0
C0
C0
C0
ENDCHAR
STARTCHAR 004A
ENCODING 74
SWIDTH 666 0
DWIDTH 14 0
BBX 11 15 1 0
BITMAP
0060
0060
0060
0060
0060
0060
0060
0060
0060
0060
E060
E060
E060
7FE0
7FC0
ENDCHAR
STARTCHAR 004B
ENCODING 75
SWIDTH 666 0
DWIDTH 14 0
BBX 12 15 2 0
BITMAP
C0F0
C1C0
C380
C700
CE00
DC00
F800
F000
F800
DC00
CE00
C300
C1C0
C0E0
C070
ENDCHAR
STARTCHAR 004C
ENCODING 76
SWIDTH 571 0
DWIDTH 12 0
BBX 10 15 2 0
BITMAP
C000
C000
C000
C000
C000
C000
C000
C000
C000
C000
C000
C000
C000
FFC0
FFC0
ENDCHAR
STARTCHAR 004D
ENCODING 77
SWIDTH 952 0
DWIDTH 20 0
BBX 16 15 2 0
BITMAP
C007
E007
E00F
F00F
F01B
D81B
D833
CC33
CC63
C663
C6C3
C3C3
C383
C183
C103
ENDCHAR
STARTCHAR 004E
ENCODING 78
SWIDTH 809 0
DWIDTH 17 0
BBX 13 15 2 0
BITMAP
C018
E018
F018
F818
D818
CC18
CE18
C718
C318
C198
C1D8
C0F8
C078
C038
C038
ENDCHAR
STARTCHAR 004F
ENCODING 79
SWIDTH 761 0
DWIDTH 16 0
BBX 12 15 2 0
BITMAP
7FF0
FFF0
C030
C030
C030
C030
C030
C030
C030
C030
C030
C030
C030
FFF0
7FF0
ENDCHAR
STARTCHAR 0050
ENCODING 80
SWIDTH 714 0
DWIDTH 15 0
BBX 12 15 2 0
BITMAP
FFC0
FFE0
C060
C070
C070
C070
C060
FFE0
FFC0
C000
C000
C000
C000
C000
C000
ENDCHAR
STARTCHAR 0051
ENCODING 81
SWIDTH 761 0
DWIDTH 16 0
BBX 12 18 2 -3
BITMAP
7FF0
FFF0
C030
C030
C030
C030
C030
C030
C030
C030
C030
C630
C630
FFF0
7FF0
0600
0600
0600
ENDCHAR
STARTCHAR 0052
ENCODING 82
SWIDTH 714 0
DWIDTH 15 0
BBX 12 15 2 0
BITMAP
FFC0
FFE0
C060
C060
C070
C060
C060
FFE0
FFC0
C180
C1C0
C0C0
C0C0
C060
C070
ENDCHAR
STARTCHAR 0053
ENCODING 83
SWIDTH 714 0
DWIDTH 15 0
BBX 11 15 2 0
BITMAP
7FC0
FFE0
C060
C060
C000
C000
C000
FFE0
7FE0
0060
0060
C060
C060
FFE0
FFE0
ENDCHAR
STARTCHAR 0054
ENCODING 84
SWIDTH 619 0
DWIDTH 13 0
BBX 11 15 1 0
BITMAP
FFE0
FFE0
0E00
0E00
0E00
0E00
0E00
0E00
0E00
0E00
0E00
0E00
0E00
0E00
0E00
ENDCHAR
STARTCHAR 0055
ENCODING 85
SWIDTH 761 0
DWIDTH 16 0
BBX 12 15 2 0
BITMAP
C030
C030
C030
C030
C030
C030
C030
C030
C030
C030
C030
C030
C030
FFF0
7FF0
ENDCHAR
STARTCHAR 0056
ENCODING 86
SWIDTH 714 0
DWIDTH 15 0
BBX 13 15 1 0
BITMAP
C018
C038
6030
6030
7070
3060
3060
38C0
18C0
18C0
0D80
0D80
0F80
0700
0700
ENDCHAR
STARTCHAR 0057
ENCODING 87
SWIDTH 1000 0
DWIDTH 21 0
BBX 19 15 1 0
BITMAP
C0C060
C0E0E0
C0E0C0
61E0C0
61B0C0
61B180
73B180
333180
331980
331B00
1E1B00
1E1B00
1E0E00
1E0E00
0C0E00
ENDCHAR
STARTCHAR 0058
ENCODING 88
SWIDTH 666 0
DWIDTH 14 0
BBX 13 15 1 0
BITMAP
E038
6070
70E0
38C0
19C0
0F80
0F00
0700
0F00
1F80
19C0
38C0
7060
6070
E038
ENDCHAR
STARTCHAR 0059
ENCODING 89
SWIDTH 666 0
DWIDTH 14 0
BBX 14 15 0 0
BITMAP
E01C
7018
3030
1870
1C60
0CC0
0FC0
0780
0380
0300
0300
0300
0300
0300
0300
ENDCHAR
STARTCHAR 005A
ENCODING 90
SWIDTH 666 0
DWIDTH 14 0
BBX 12 15 1 0
BITMAP
7FF0
7FF0
00E0
00C0
01C0
0380
0300
0600
0E00
0C00
1800
3800
3000
7FF0
FFF0
ENDCHAR
STARTCHAR 005B
ENCODING 91
SWIDTH 428 0
DWIDTH 9 0
BBX 5 20 2 -4
BITMAP
F8
F8
C0
C0
C0
C0
C0
C0
C0
C0
C0
C0
C0
C0
C0
C0
C0
C0
F8
F8
ENDCHAR
STARTCHAR 005C
ENCODING 92
SWIDTH 428 0
DWIDTH 9 0
BBX 7 17 1 -1
BITMAP
C0
C0
60
60
60
30
30
30
18
18
18
0C
0C
0C
06
06
06
ENDCHAR
STARTCHAR 005D
ENCODING 93
SWIDTH 428 0
DWIDTH 9 0
BBX 6 20 1 -4
BITMAP
FC
FC
0C
0C
0C
0C
0C
0C
0C
0C
0C
0C
0C
0C
0C
0C
0C
0C
FC
FC
ENDCHAR
STARTCHAR 005E
ENCODING 94
SWIDTH 571 0
DWIDTH 12 0
BBX 10 7 1 8
BITMAP
0C00
1E00
3600
3300
6300
6180
C0C0
ENDCHAR
STARTCHAR 005F
ENCODING 95
SWIDTH 619 0
DWIDTH 13 0
BBX 13 2 0 -6
BITMAP
FFF8
FFF8
ENDCHAR
STARTCHAR 0060
ENCODING 96
SWIDTH 380 0
DWIDTH 8 0
BBX 6 2 1 13
BITMAP
F0
1C
ENDCHAR
STARTCHAR 0061
ENCODING 97
SWIDTH 619 0
DWIDTH 13 0
BBX 9 11 2 0
BITMAP
FF00
FF80
0180
0180
FF80
FF80
C180
C180
C180
FF80
FD80
ENDCHAR
STARTCHAR 0062
ENCODING 98
SWIDTH 619 0
DWIDTH 13 0
BBX 9 15 2 0
BITMAP
C000
C000
C000
C000
FF80
FF80
C180
C180
C180
C180
C180
C180
C180
FF80
FF80
ENDCHAR
STARTCHAR 0063
ENCODING 99
SWIDTH 619 0
DWIDTH 13 0
BBX 9 11 2 0
BITMAP
FF00
FF80
C180
C180
C000
C000
C000
C180
C180
FF80
FF00
ENDCHAR
STARTCHAR 0064
ENCODING 100
SWIDTH 619 0
DWIDTH 13 0
BBX 9 15 2 0
BITMAP
0180
0180
0180
0180
FF80
FF80
C180
C180
C180
C180
C180
C180
C180
FF80
FF80
ENDCHAR
STARTCHAR 0065
ENCODING 101
SWIDTH 619 0
DWIDTH 13 0
BBX 9 11 2 0
BITMAP
FF00
FF80
C180
C180
C180
FF80
FF80
C000
C000
FF80
FF80
ENDCHAR
STARTCHAR 0066
ENCODING 102
SWIDTH 476 0
DWIDTH 10 0
BBX 8 15 1 0
BITMAP
1F
1F
18
18
FF
FF
18
18
18
18
18
18
18
18
18
ENDCHAR
STARTCHAR 0067
ENCODING 103
SWIDTH 619 0
DWIDTH 13 0
BBX 9 15 2 -4
BITMAP
FF80
FF80
C180
C180
C180
C180
C180
C180
C180
FF80
FF80
0180
0180
7F80
7F80
ENDCHAR
STARTCHAR 0068
ENCODING 104
SWIDTH 619 0
DWIDTH 13 0
BBX 9 15 2 0
BITMAP
C000
C000
C000
C000
FF80
FF80
C180
C180
C180
C180
C180
C180
C180
C180
C180
ENDCHAR
STARTCHAR 0069
ENCODING 105
SWIDTH 285 0
DWIDTH 6 0
BBX 2 15 2 0
BITMAP
C0
C0
00
00
C0
C0
C0
C0
C0
C0
C0
C0
C0
C0
C0
ENDCHAR
STARTCHAR 006A
ENCODING 106
SWIDTH 285 0
DWIDTH 6 0
BBX 4 19 0 -4
BITMAP
30
30
00
00
30
30
30
30
30
30
30
30
30
30
30
30
30
F0
E0
ENDCHAR
STARTCHAR 006B
ENCODING 107
SWIDTH 571 0
DWIDTH 12 0
BBX 10 15 2 0
BITMAP
C000
C000
C000
C000
C380
C700
CE00
DC00
F000
F000
F800
DC00
CE00
C700
C3C0
ENDCHAR
STARTCHAR 006C
ENCODING 108
SWIDTH 238 0
DWIDTH 5 0
BBX 2 15 2 0
BITMAP
C0
C0
C0
C0
C0
C0
C0
C0
C0
C0
C0
C0
C0
C0
C0
ENDCHAR
STARTCHAR 006D
ENCODING 109
SWIDTH 904 0
DWIDTH 19 0
BBX 15 11 2 0
BITMAP
FF7C
FFFE
C306
C306
C306
C306
C306
C306
C306
C306
C306
ENDCHAR
STARTCHAR 006E
ENCODING 110
SWIDTH 619 0
DWIDTH 13 0
BBX 9 11 2 0
BITMAP
FF80
FF80
C180
C180
C180
C180
C180
C180
C180
C180
C180
ENDCHAR
STARTCHAR 006F
ENCODING 111
SWIDTH 619 0
DWIDTH 13 0
BBX 9 11 2 0
BITMAP
FF00
FF80
C180
C180
C180
C180
C180
C180
C180
FF80
FF00
ENDCHAR
STARTCHAR 0070
ENCODING 112
SWIDTH 619 0
DWIDTH 13 0
BBX 9 15 2 -4
BITMAP
FF80
FF80
C180
C180
C180
C180
C180
C180
C180
FF80
FF80
C000
C000
C000
C000
ENDCHAR
STARTCHAR 0071
ENCODING 113
SWIDTH 619 0
DWIDTH 13 0
BBX 9 15 2 -4
BITMAP
FF80
FF80
C180
C180
C180
C180
C180
C180
C180
FF80
FF80
0180
0180
0180
0180
ENDCHAR
STARTCHAR 0072
ENCODING 114
SWIDTH 523 0
DWIDTH 11 0
BBX 8 11 2 0
BITMAP
FE
FF
C3
C3
C0
C0
C0
C0
C0
C0
C0
ENDCHAR
STARTCHAR 0073
ENCODING 115
SWIDTH 571 0
DWIDTH 12 0
BBX 9 11 1 0
BITMAP
7F80
7F80
C000
C000
7F80
7F80
0180
0180
0180
FF80
FF80
ENDCHAR
STARTCHAR 0074
ENCODING 116
SWIDTH 523 0
DWIDTH 11 0
BBX 8 14 1 0
BITMAP
18
18
18
FF
FF
18
18
18
18
18
18
18
1F
1F
ENDCHAR
STARTCHAR 0075
ENCODING 117
SWIDTH 619 0
DWIDTH 13 0
BBX 9 11 2 0
BITMAP
C180
C180
C180
C180
C180
C180
C180
C180
C180
FF80
FF80
ENDCHAR
STARTCHAR 0076
ENCODING 118
SWIDTH 571 0
DWIDTH 12 0
BBX 11 11 0 0
BITMAP
E060
6060
60C0
30C0
3180
1980
1980
1B00
0F00
0E00
0600
ENDCHAR
STARTCHAR 0077
ENCODING 119
SWIDTH 809 0
DWIDTH 17 0
BBX 17 11 0 0
BITMAP
E1C380
61C300
61C300
336600
336600
336600
122C00
1E3C00
1E3C00
1C3800
0C1800
ENDCHAR
STARTCHAR 0078
ENCODING 120
SWIDTH 571 0
DWIDTH 12 0
BBX 10 11 1 0
BITMAP
E1C0
6180
3300
3F00
1E00
0C00
1E00
3F00
7380
6180
C0C0
ENDCHAR
STARTCHAR 0079
ENCODING 121
SWIDTH 523 0
DWIDTH 11 0
BBX 11 15 0 -4
BITMAP
E060
60C0
30C0
31C0
3180
1980
1B00
0F00
0E00
0600
0C00
0C00
0C00
1800
3800
ENDCHAR
STARTCHAR 007A
ENCODING 122
SWIDTH 571 0
DWIDTH 12 0
BBX 10 11 1 0
BITMAP
FFC0
FF80
0300
0600
0E00
0C00
1800
3800
3000
7FC0
FFC0
ENDCHAR
STARTCHAR 007B
ENCODING 123
SWIDTH 380 0
DWIDTH 8 0
BBX 7 20 0 -4
BITMAP
0E
1E
18
30
30
30
38
38
30
F0
F0
30
38
38
30
30
30
18
1E
0E
ENDCHAR
STARTCHAR 007C
ENCODING 124
SWIDTH 285 0
DWIDTH 6 0
BBX 2 20 2 -4
BITMAP
C0
C0
C0
C0
C0
C0
C0
C0
C0
C0
C0
C0
C0
C0
C0
C0
C0
C0
C0
C0
ENDCHAR
STARTCHAR 007D
ENCODING 125
SWIDTH 380 0
DWIDTH 8 0
BBX 7 20 1 -4
BITMAP
E0
F0
38
18
18
18
18
18
18
1E
1E
18
18
18
18
18
18
38
F0
E0
ENDCHAR
STARTCHAR 007E
ENCODING 126
SWIDTH 571 0
DWIDTH 12 0
BBX 10 3 1 5
BITMAP
38C0
7FC0
C780
ENDCHAR
STARTCHAR 00A0
ENCODING 160
SWIDTH 285 0
DWIDTH 6 0
BBX 0 0 0 0
BITMAP
ENDCHAR
STARTCHAR 00A1
ENCODING 161
SWIDTH 285 0
DWIDTH 6 0
BBX 4 14 1 -4
BITMAP
F0
F0
F0
00
00
60
60
60
60
60
60
60
60
60
ENDCHAR
STARTCHAR 00A2
ENCODING 162
SWIDTH 619 0
DWIDTH 13 0
BBX 9 15 2 -2
BITMAP
1800
1800
FF00
FF80
C180
C180
C000
C000
C000
C180
C180
FF80
FF00
1800
1800
ENDCHAR
STARTCHAR 00A3
ENCODING 163
SWIDTH 714 0
DWIDTH 15 0
BBX 13 15 1 0
BITMAP
1FE0
3FF0
3030
3030
3000
3000
3000
FF80
FF80
3000
3000
3018
3018
FFF8
E7F0
ENDCHAR
STARTCHAR 00A4
ENCODING 164
SWIDTH 666 0
DWIDTH 14 0
BBX 11 11 1 2
BITMAP
4040
EFE0
3FC0
31C0
70C0
60C0
70C0
31C0
3FC0
6FE0
C040
ENDCHAR
STARTCHAR 00A5
ENCODING 165
SWIDTH 666 0
DWIDTH 14 0
BBX 14 15 0 0
BITMAP
E01C
7018
3030
1870
1C60
0CE0
0FC0
0780
3FF8
3FF8
0300
3FF8
3FF8
0300
0300
ENDCHAR
STARTCHAR 00A6
ENCODING 166
SWIDTH 285 0
DWIDTH 6 0
BBX 2 20 2 -4
BITMAP
C0
C0
C0
C0
C0
C0
C0
C0
C0
00
00
C0
C0
C0
C0
C0
C0
C0
C0
C0
ENDCHAR
STARTCHAR 00A7
ENCODING 167
SWIDTH 666 0
DWIDTH 14 0
BBX 11 21 2 -6
BITMAP
7FC0
FFE0
C0E0
C0E0
C000
C000
FFC0
7FC0
C0E0
C0E0
C0E0
C0E0
C0E0
FFC0
7FE0
00E0
00E0
C0E0
C0E0
FFE0
7FC0
ENDCHAR
STARTCHAR 00A8
ENCODING 168
SWIDTH 428 0
DWIDTH 9 0
BBX 7 2 1 13
BITMAP
C6
C6
ENDCHAR
STARTCHAR 00A9
ENCODING 169
SWIDTH 809 0
DWIDTH 17 0
BBX 15 15 1 0
BITMAP
07C0
1830
3008
6004
4FE6
CC66
CC02
CC02
CC02
CC66
4FE6
6004
3008
1830
07C0
ENDCHAR
STARTCHAR 00AA
ENCODING 170
SWIDTH 476 0
DWIDTH 10 0
BBX 7 11 1 4
BITMAP
7E
7E
06
7E
FE
C6
FE
7E
00
00
FE
ENDCHAR
STARTCHAR 00AB
ENCODING 171
SWIDTH 571 0
DWIDTH 12 0
BBX 9 10 1 0
BITMAP
0880
1880
3180
6300
E600
E600
6300
3180
1880
0880
ENDCHAR
STARTCHAR 00AC
ENCODING 172
SWIDTH 714 0
DWIDTH 15 0
BBX 11 7 2 2
BITMAP
FFE0
FFE0
0060
0060
0060
0060
0060
ENDCHAR
STARTCHAR 00AE
ENCODING 174
SWIDTH 809 0
DWIDTH 17 0
BBX 15 15 1 0
BITMAP
07C0
1830
3008
6004
47E6
C466
C462
C7E2
C4C2
C446
4466
6004
3008
1830
07C0
ENDCHAR
STARTCHAR 00AF
ENCODING 175
SWIDTH 476 0
DWIDTH 10 0
BBX 8 2 1 13
BITMAP
FF
FF
ENDCHAR
STARTCHAR 00B0
ENCODING 176
SWIDTH 428 0
DWIDTH 9 0
BBX 7 7 1 8
BITMAP
38
7C
C6
C6
C6
7C
38
ENDCHAR
STARTCHAR 00B1
ENCODING 177
SWIDTH 714 0
DWIDTH 15 0
BBX 11 12 2 0
BITMAP
0C00
0C00
0C00
0C00
FFE0
FFE0
0C00
0C00
0C00
0C00
FFE0
FFE0
ENDCHAR
STARTCHAR 00B2
ENCODING 178
SWIDTH 428 0
DWIDTH 9 0
BBX 6 7 1 7
BITMAP
FC
C4
0C
3C
F0
C4
FC
ENDCHAR
STARTCHAR 00B3
ENCODING 179
SWIDTH 428 0
DWIDTH 9 0
BBX 6 7 1 7
BITMAP
7C
C4
04
3C
04
C4
7C
ENDCHAR
STARTCHAR 00B4
ENCODING 180
SWIDTH 380 0
DWIDTH 8 0
BBX 6 2 1 13
BITMAP
3C
E0
ENDCHAR
STARTCHAR 00B5
ENCODING 181
SWIDTH 619 0
DWIDTH 13 0
BBX 9 15 2 -4
BITMAP
C180
C180
C180
C180
C180
C180
C180
C180
C180
FF80
FF80
C000
C000
C000
C000
ENDCHAR
STARTCHAR 00B6
ENCODING 182
SWIDTH 714 0
DWIDTH 15 0
BBX 12 19 1 -4
BITMAP
7FF0
FFF0
FE30
FE30
FE30
FE30
FE30
FE30
7E30
0630
0630
0630
0630
0630
0630
0630
0630
0630
0630
ENDCHAR
STARTCHAR 00B7
ENCODING 183
SWIDTH 285 0
DWIDTH 6 0
BBX 3 3 2 6
BITMAP
E0
E0
E0
ENDCHAR
STARTCHAR 00B8
ENCODING 184
SWIDTH 523 0
DWIDTH 11 0
BBX 4 6 3 -5
BITMAP
30
60
F0
30
30
F0
ENDCHAR
STARTCHAR 00B9
ENCODING 185
SWIDTH 238 0
DWIDTH 5 0
BBX 3 8 1 7
BITMAP
E0
E0
60
60
60
60
60
60
ENDCHAR
STARTCHAR 00BA
ENCODING 186
SWIDTH 476 0
DWIDTH 10 0
BBX 7 11 1 4
BITMAP
7E
FE
C6
C6
C6
C6
FE
7E
00
00
FE
ENDCHAR
STARTCHAR 00BB
ENCODING 187
SWIDTH 571 0
DWIDTH 12 0
BBX 10 10 1 0
BITMAP
8800
C400
6600
3300
1980
19C0
3300
6600
C400
8800
ENDCHAR
STARTCHAR 00BC
ENCODING 188
SWIDTH 809 0
DWIDTH 17 0
BBX 14 15 1 0
BITMAP
E030
2020
2060
20C0
2080
2180
2300
2218
0638
0C28
0868
18C8
30FC
2008
6008
ENDCHAR
STARTCHAR 00BD
ENCODING 189
SWIDTH 857 0
DWIDTH 18 0
BBX 15 15 1 0
BITMAP
E030
2020
2060
20C0
2080
2180
2300
223E
0662
0C06
081E
183C
3070
2062
607E
ENDCHAR
STARTCHAR 00BE
ENCODING 190
SWIDTH 904 0
DWIDTH 19 0
BBX 17 14 1 0
BITMAP
7C0600
460C00
040800
1C1800
063000
C62000
7C6300
00C700
008500
018D00
031900
061F80
040100
0C0100
ENDCHAR
STARTCHAR 00BF
ENCODING 191
SWIDTH 571 0
DWIDTH 12 0
BBX 10 14 1 -4
BITMAP
0E00
0E00
0E00
0000
0000
0E00
0E00
1C00
7800
E000
C1C0
C1C0
FF80
7F80
ENDCHAR
STARTCHAR 00C0
ENCODING 192
SWIDTH 714 0
DWIDTH 15 0
BBX 13 19 1 0
BITMAP
1C00
0600
0100
0000
0600
0700
0F00
0F80
0D80
1D80
18C0
18C0
30E0
3060
7FE0
7FF0
6030
C030
C018
ENDCHAR
STARTCHAR 00C1
ENCODING 193
SWIDTH 714 0
DWIDTH 15 0
BBX 13 19 1 0
BITMAP
03C0
0700
0800
0000
0600
0700
0F00
0F80
0D80
1D80
18C0
18C0
30E0
3060
7FE0
7FF0
6030
C030
C018
ENDCHAR
STARTCHAR 00C2
ENCODING 194
SWIDTH 714 0
DWIDTH 15 0
BBX 13 19 1 0
BITMAP
0700
0D80
18C0
0000
0600
0700
0F00
0F80
0D80
1D80
18C0
18C0
30E0
3060
7FE0
7FF0
6030
C030
C018
ENDCHAR
STARTCHAR 00C3
ENCODING 195
SWIDTH 714 0
DWIDTH 15 0
BBX 13 19 1 0
BITMAP
1E40
1FC0
3380
0000
0600
0700
0F00
0F80
0D80
1D80
18C0
18C0
30E0
3060
7FE0
7FF0
6030
C030
C018
ENDCHAR
STARTCHAR 00C4
ENCODING 196
SWIDTH 714 0
DWIDTH 15 0
BBX 13 19 1 0
BITMAP
19C0
19C0
0000
0000
0600
0700
0F00
0F80
0D80
1D80
18C0
18C0
30E0
3060
7FE0
7FF0
6030
C030
C018
ENDCHAR
STARTCHAR 00C5
ENCODING 197
SWIDTH 714 0
DWIDTH 15 0
BBX 13 19 1 0
BITMAP
0700
0980
0880
0D80
0F80
0700
0F00
0F80
0D80
1D80
18C0
18C0
30E0
3060
7FE0
7FF0
6030
C030
C018
ENDCHAR
STARTCHAR 00C6
ENCODING 198
SWIDTH 1142 0
DWIDTH 24 0
BBX 23 15 0 0
BITMAP
001FFE
003FFE
003C00
007C00
00EC00
01CC00
03CC00
038FFC
070FFC
0E0C00
1FFC00
1FFC00
380C00
700FFE
E00FFE
ENDCHAR
STARTCHAR 00C7
ENCODING 199
SWIDTH 761 0
DWIDTH 16 0
BBX 12 20 2 -5
BITMAP
7FE0
FFF0
C030
C030
C000
C000
C000
C000
C000
C000
C000
C030
C030
FFF0
7FE0
0600
0F00
0300
0300
0F00
ENDCHAR
STARTCHAR 00C8
ENCODING 200
SWIDTH 666 0
DWIDTH 14 0
BBX 11 19 2 0
BITMAP
3800
0C00
0200
0000
FFE0
FFE0
C000
C000
C000
C000
C000
FF80
FF80
C000
C000
C000
C000
FFE0
FFE0
ENDCHAR
STARTCHAR 00C9
ENCODING 201
SWIDTH 666 0
DWIDTH 14 0
BBX 11 19 2 0
BITMAP
0700
0C00
1000
0000
FFE0
FFE0
C000
C000
C000
C000
C000
FF80
FF80
C000
C000
C000
C000
FFE0
FFE0
ENDCHAR
STARTCHAR 00CA
ENCODING 202
SWIDTH 666 0
DWIDTH 14 0
BBX 11 19 2 0
BITMAP
0E00
1B00
3180
0000
FFE0
FFE0
C000
C000
C000
C000
C000
FF80
FF80
C000
C000
C000
C000
FFE0
FFE0
ENDCHAR
STARTCHAR 00CB
ENCODING 203
SWIDTH 666 0
DWIDTH 14 0
BBX 11 19 2 0
BITMAP
3380
3380
0000
0000
FFE0
FFE0
C000
C000
C000
C000
C000
FF80
FF80
C000
C000
C000
C000
FFE0
FFE0
ENDCHAR
STARTCHAR 00CC
ENCODING 204
SWIDTH 285 0
DWIDTH 6 0
BBX 6 19 -1 0
BITMAP
F0
18
04
00
18
18
18
18
18
18
18
18
18
18
18
18
18
18
18
ENDCHAR
STARTCHAR 00CD
ENCODING 205
SWIDTH 285 0
DWIDTH 6 0
BBX 5 19 1 0
BITMAP
38
60
80
00
60
60
60
60
60
60
60
60
60
60
60
60
60
60
60
ENDCHAR
STARTCHAR 00CE
ENCODING 206
SWIDTH 285 0
DWIDTH 6 0
BBX 8 19 -1 0
BITMAP
3C
7E
C7
00
18
18
18
18
18
18
18
18
18
18
18
18
18
18
18
ENDCHAR
STARTCHAR 00CF
ENCODING 207
SWIDTH 285 0
DWIDTH 6 0
BBX 6 19 0 0
BITMAP
CC
CC
00
00
30
30
30
30
30
30
30
30
30
30
30
30
30
30
30
ENDCHAR
STARTCHAR 00D0
ENCODING 208
SWIDTH 761 0
DWIDTH 16 0
BBX 15 15 0 0
BITMAP
3FF0
3FFC
300C
300E
3006
3006
3006
FF06
FF06
3006
3006
300E
300C
3FFC
3FF0
ENDCHAR
STARTCHAR 00D1
ENCODING 209
SWIDTH 809 0
DWIDTH 17 0
BBX 13 19 2 0
BITMAP
1E40
1FC0
3380
0000
C018
E018
F018
F018
D818
DC18
CE18
C718
C318
C198
C1D8
C0F8
C078
C038
C038
ENDCHAR
STARTCHAR 00D2
ENCODING 210
SWIDTH 761 0
DWIDTH 16 0
BBX 12 19 2 0
BITMAP
1C00
0600
0100
0000
7FF0
FFF0
C030
C030
C030
C030
C030
C030
C030
C030
C030
C030
C030
FFF0
7FF0
ENDCHAR
STARTCHAR 00D3
ENCODING 211
SWIDTH 761 0
DWIDTH 16 0
BBX 12 19 2 0
BITMAP
03C0
0600
0800
0000
7FF0
FFF0
C030
C030
C030
C030
C030
C030
C030
C030
C030
C030
C030
FFF0
7FF0
ENDCHAR
STARTCHAR 00D4
ENCODING 212
SWIDTH 761 0
DWIDTH 16 0
BBX 12 19 2 0
BITMAP
0F00
1D80
38C0
0000
7FF0
FFF0
C030
C030
C030
C030
C030
C030
C030
C030
C030
C030
C030
FFF0
7FF0
ENDCHAR
STARTCHAR 00D5
ENCODING 213
SWIDTH 761 0
DWIDTH 16 0
BBX 12 19 2 0
BITMAP
1C40
3FC0
3380
0000
7FF0
FFF0
C030
C030
C030
C030
C030
C030
C030
C030
C030
C030
C030
FFF0
7FF0
ENDCHAR
STARTCHAR 00D6
ENCODING 214
SWIDTH 761 0
DWIDTH 16 0
BBX 12 19 2 0
BITMAP
1980
1980
0000
0000
7FF0
FFF0
C030
C030
C030
C030
C030
C030
C030
C030
C030
C030
C030
FFF0
7FF0
ENDCHAR
STARTCHAR 00D7
ENCODING 215
SWIDTH 666 0
DWIDTH 14 0
BBX 12 12 1 0
BITMAP
4020
E070
70E0
39C0
1F80
0F00
0F00
1F80
39C0
70E0
E070
4020
ENDCHAR
STARTCHAR 00D8
ENCODING 216
SWIDTH 761 0
DWIDTH 16 0
BBX 12 19 2 -2
BITMAP
0030
0030
7FF0
FFF0
C0F0
C1B0
C1B0
C330
C330
C630
C430
CC30
C830
D830
D030
FFF0
7FF0
4000
C000
ENDCHAR
STARTCHAR 00D9
ENCODING 217
SWIDTH 761 0
DWIDTH 16 0
BBX 12 19 2 0
BITMAP
3C00
0600
0100
0000
C030
C030
C030
C030
C030
C030
C030
C030
C030
C030
C030
C030
C030
FFF0
7FF0
ENDCHAR
STARTCHAR 00DA
ENCODING 218
SWIDTH 761 0
DWIDTH 16 0
BBX 12 19 2 0
BITMAP
03C0
0700
0000
0000
C030
C030
C030
C030
C030
C030
C030
C030
C030
C030
C030
C030
C030
FFF0
7FF0
ENDCHAR
STARTCHAR 00DB
ENCODING 219
SWIDTH 761 0
DWIDTH 16 0
BBX 12 19 2 0
BITMAP
0F00
1D80
38C0
0000
C030
C030
C030
C030
C030
C030
C030
C030
C030
C030
C030
C030
C030
FFF0
7FF0
ENDCHAR
STARTCHAR 00DC
ENCODING 220
SWIDTH 761 0
DWIDTH 16 0
BBX 12 19 2 0
BITMAP
1980
1980
0000
0000
C030
C030
C030
C030
C030
C030
C030
C030
C030
C030
C030
C030
C030
FFF0
7FF0
ENDCHAR
STARTCHAR 00DD
ENCODING 221
SWIDTH 666 0
DWIDTH 14 0
BBX 14 19 0 0
BITMAP
00E0
0180
0200
0000
E01C
7018
3030
1870
1C60
0CE0
0EC0
0780
0380
0300
0300
0300
0300
0300
0300
ENDCHAR
STARTCHAR 00DE
ENCODING 222
SWIDTH 714 0
DWIDTH 15 0
BBX 12 15 2 0
BITMAP
C000
C000
C000
FFC0
FFE0
C060
C060
C070
C060
C060
FFE0
FFC0
C000
C000
C000
ENDCHAR
STARTCHAR 00DF
ENCODING 223
SWIDTH 666 0
DWIDTH 14 0
BBX 11 15 2 0
BITMAP
7F80
FFC0
C0C0
C0C0
C3C0
CF00
CC00
CC00
CFC0
CFC0
C060
C060
C060
CFC0
CFC0
ENDCHAR
STARTCHAR 00E0
ENCODING 224
SWIDTH 619 0
DWIDTH 13 0
BBX 9 15 2 0
BITMAP
7000
1800
0400
0000
FF00
FF80
0180
0180
FF80
FF80
C180
C180
C180
FF80
FD80
ENDCHAR
STARTCHAR 00E1
ENCODING 225
SWIDTH 619 0
DWIDTH 13 0
BBX 9 15 2 0
BITMAP
0F00
1C00
0000
0000
FF00
FF80
0180
0180
FF80
FF80
C180
C180
C180
FF80
FD80
ENDCHAR
STARTCHAR 00E2
ENCODING 226
SWIDTH 619 0
DWIDTH 13 0
BBX 9 15 2 0
BITMAP
1C00
3600
6300
0000
FF00
FF80
0180
0180
FF80
FF80
C180
C180
C180
FF80
FD80
ENDCHAR
STARTCHAR 00E3
ENCODING 227
SWIDTH 619 0
DWIDTH 13 0
BBX 9 16 2 0
BITMAP
3980
7F00
4E00
8000
0000
FF00
FF80
0180
0180
FF80
FF80
C180
C180
C180
FF80
FD80
ENDCHAR
STARTCHAR 00E4
ENCODING 228
SWIDTH 619 0
DWIDTH 13 0
BBX 9 15 2 0
BITMAP
6300
6300
0000
0000
FF00
FF80
0180
0180
FF80
FF80
C180
C180
C180
FF80
FD80
ENDCHAR
STARTCHAR 00E5
ENCODING 229
SWIDTH 619 0
DWIDTH 13 0
BBX 9 18 2 0
BITMAP
1C00
3200
2200
3200
1C00
0000
0000
FF00
FF80
0180
0180
FF80
FF80
C180
C180
C180
FF80
FD80
ENDCHAR
STARTCHAR 00E6
ENCODING 230
SWIDTH 952 0
DWIDTH 20 0
BBX 16 11 2 0
BITMAP
FEFE
FFFF
0183
0183
FF83
FFFF
C1FF
C180
C180
FFFF
FCFF
ENDCHAR
STARTCHAR 00E7
ENCODING 231
SWIDTH 619 0
DWIDTH 13 0
BBX 9 16 2 -5
BITMAP
FF00
FF80
C180
C180
C000
C000
C000
C180
C180
FF80
FF00
0800
1C00
2400
0400
3C00
ENDCHAR
STARTCHAR 00E8
ENCODING 232
SWIDTH 619 0
DWIDTH 13 0
BBX 9 15 2 0
BITMAP
7000
1800
0400
0000
FF00
FF80
C180
C180
C180
FF80
FF80
C000
C000
FF80
FF80
ENDCHAR
STARTCHAR 00E9
ENCODING 233
SWIDTH 619 0
DWIDTH 13 0
BBX 9 15 2 0
BITMAP
0F00
1C00
2000
0000
FF00
FF80
C180
C180
C180
FF80
FF80
C000
C000
FF80
FF80
ENDCHAR
STARTCHAR 00EA
ENCODING 234
SWIDTH 619 0
DWIDTH 13 0
BBX 9 15 2 0
BITMAP
1C00
3600
6300
0000
FF00
FF80
C180
C180
C180
FF80
FF80
C000
C000
FF80
FF80
ENDCHAR
STARTCHAR 00EB
ENCODING 235
SWIDTH 619 0
DWIDTH 13 0
BBX 9 15 2 0
BITMAP
6700
6700
0000
0000
FF00
FF80
C180
C180
C180
FF80
FF80
C000
C000
FF80
FF80
ENDCHAR
STARTCHAR 00EC
ENCODING 236
SWIDTH 285 0
DWIDTH 6 0
BBX 6 15 -1 0
BITMAP
F0
18
04
00
18
18
18
18
18
18
18
18
18
18
18
ENDCHAR
STARTCHAR 00ED
ENCODING 237
SWIDTH 285 0
DWIDTH 6 0
BBX 5 15 1 0
BITMAP
38
60
80
00
60
60
60
60
60
60
60
60
60
60
60
ENDCHAR
STARTCHAR 00EE
ENCODING 238
SWIDTH 285 0
DWIDTH 6 0
BBX 7 15 -1 0
BITMAP
3C
6E
80
00
18
18
18
18
18
18
18
18
18
18
18
ENDCHAR
STARTCHAR 00EF
ENCODING 239
SWIDTH 285 0
DWIDTH 6 0
BBX 6 15 0 0
BITMAP
CC
CC
00
00
30
30
30
30
30
30
30
30
30
30
30
ENDCHAR
STARTCHAR 00F0
ENCODING 240
SWIDTH 619 0
DWIDTH 13 0
BBX 9 16 2 0
BITMAP
0800
1D80
0600
1F00
0300
FF80
FF80
C180
C180
C180
C180
C180
C180
C180
FF80
FF00
ENDCHAR
STARTCHAR 00F1
ENCODING 241
SWIDTH 619 0
DWIDTH 13 0
BBX 9 16 2 0
BITMAP
3980
7F00
4E00
8000
0000
FF80
FF80
C180
C180
C180
C180
C180
C180
C180
C180
C180
ENDCHAR
STARTCHAR 00F2
ENCODING 242
SWIDTH 619 0
DWIDTH 13 0
BBX 9 15 2 0
BITMAP
7000
1800
0400
0000
FF00
FF80
C180
C180
C180
C180
C180
C180
C180
FF80
FF00
ENDCHAR
STARTCHAR 00F3
ENCODING 243
SWIDTH 619 0
DWIDTH 13 0
BBX 9 15 2 0
BITMAP
0F00
1C00
0000
0000
FF00
FF80
C180
C180
C180
C180
C180
C180
C180
FF80
FF00
ENDCHAR
STARTCHAR 00F4
ENCODING 244
SWIDTH 619 0
DWIDTH 13 0
BBX 9 15 2 0
BITMAP
1C00
3600
6300
0000
FF00
FF80
C180
C180
C180
C180
C180
C180
C180
FF80
FF00
ENDCHAR
STARTCHAR 00F5
ENCODING 245
SWIDTH 619 0
DWIDTH 13 0
BBX 9 16 2 0
BITMAP
7900
7F00
CE00
0000
0000
FF00
FF80
C180
C180
C180
C180
C180
C180
C180
FF80
FF00
ENDCHAR
STARTCHAR 00F6
ENCODING 246
SWIDTH 619 0
DWIDTH 13 0
BBX 9 15 2 0
BITMAP
6700
6700
0000
0000
FF00
FF80
C180
C180
C180
C180
C180
C180
C180
FF80
FF00
ENDCHAR
STARTCHAR 00F7
ENCODING 247
SWIDTH 714 0
DWIDTH 15 0
BBX 11 12 2 0
BITMAP
0E00
0E00
0E00
0000
0000
FFE0
FFE0
0000
0000
0E00
0E00
0E00
ENDCHAR
STARTCHAR 00F8
ENCODING 248
SWIDTH 619 0
DWIDTH 13 0
BBX 9 15 2 -2
BITMAP
0180
0100
FF80
FF80
C780
C580
CD80
C980
D980
D180
F180
FF80
FF00
C000
8000
ENDCHAR
STARTCHAR 00F9
ENCODING 249
SWIDTH 619 0
DWIDTH 13 0
BBX 9 15 2 0
BITMAP
7000
1800
0400
0000
C180
C180
C180
C180
C180
C180
C180
C180
C180
FF80
FF80
ENDCHAR
STARTCHAR 00FA
ENCODING 250
SWIDTH 619 0
DWIDTH 13 0
BBX 9 15 2 0
BITMAP
0700
0C00
1000
0000
C180
C180
C180
C180
C180
C180
C180
C180
C180
FF80
FF80
ENDCHAR
STARTCHAR 00FB
ENCODING 251
SWIDTH 619 0
DWIDTH 13 0
BBX 9 15 2 0
BITMAP
1C00
3600
6300
0000
C180
C180
C180
C180
C180
C180
C180
C180
C180
FF80
FF80
ENDCHAR
STARTCHAR 00FC
ENCODING 252
SWIDTH 619 0
DWIDTH 13 0
BBX 9 15 2 0
BITMAP
6700
6700
0000
0000
C180
C180
C180
C180
C180
C180
C180
C180
C180
FF80
FF80
ENDCHAR
STARTCHAR 00FD
ENCODING 253
SWIDTH 523 0
DWIDTH 11 0
BBX 11 19 0 -4
BITMAP
03C0
0600
0800
0000
E060
60C0
70C0
31C0
3180
1980
1B00
0F00
0E00
0600
0C00
0C00
0C00
1800
3800
ENDCHAR
STARTCHAR 00FE
ENCODING 254
SWIDTH 619 0
DWIDTH 13 0
BBX 9 19 2 -4
BITMAP
C000
C000
C000
C000
FF80
FF80
C180
C180
C180
C180
C180
C180
C180
FF80
FF80
C000
C000
C000
C000
ENDCHAR
STARTCHAR 00FF
ENCODING 255
SWIDTH 523 0
DWIDTH 11 0
BBX 11 19 0 -4
BITMAP
3980
3980
0000
0000
E060
60C0
30C0
3180
1980
1B80
1B00
0F00
0E00
0600
0C00
0C00
1C00
1800
3800
ENDCHAR
STARTCHAR 0127
ENCODING 295
SWIDTH 619 0
DWIDTH 13 0
BBX 11 15 0 0
BITMAP
3000
3000
FF00
3000
3FE0
3FE0
3060
3060
3060
3060
3060
3060
3060
3060
3060
ENDCHAR
STARTCHAR 0128
ENCODING 296
SWIDTH 285 0
DWIDTH 6 0
BBX 8 19 -1 0
BITMAP
73
FF
8E
00
18
18
18
18
18
18
18
18
18
18
18
18
18
18
18
ENDCHAR
STARTCHAR 0129
ENCODING 297
SWIDTH 285 0
DWIDTH 6 0
BBX 8 16 -1 0
BITMAP
73
FE
8E
00
00
18
18
18
18
18
18
18
18
18
18
18
ENDCHAR
STARTCHAR 0131
ENCODING 305
SWIDTH 285 0
DWIDTH 6 0
BBX 2 11 2 0
BITMAP
C0
C0
C0
C0
C0
C0
C0
C0
C0
C0
C0
ENDCHAR
STARTCHAR 0132
ENCODING 306
SWIDTH 904 0
DWIDTH 19 0
BBX 16 15 2 0
BITMAP
C007
C007
C007
C007
C007
C007
C007
C007
C007
C007
C607
C607
C607
C7FE
C3FE
ENDCHAR
STARTCHAR 0133
ENCODING 307
SWIDTH 523 0
DWIDTH 11 0
BBX 8 19 2 -4
BITMAP
C7
C7
00
00
C6
C6
C6
C6
C6
C6
C6
C6
C6
C6
C6
06
06
0E
0E
ENDCHAR
STARTCHAR 0134
ENCODING 308
SWIDTH 666 0
DWIDTH 14 0
BBX 13 19 1 0
BITMAP
00E0
01B0
0318
0000
0060
0060
0060
0060
0060
0060
0060
0060
0060
0060
E060
E060
E060
7FE0
7FC0
ENDCHAR
STARTCHAR 0135
ENCODING 309
SWIDTH 285 0
DWIDTH 6 0
BBX 7 19 -1 -4
BITMAP
3C
6E
C6
00
18
18
18
18
18
18
18
18
18
18
18
18
18
78
70
ENDCHAR
STARTCHAR 0137
ENCODING 311
SWIDTH 571 0
DWIDTH 12 0
BBX 10 23 2 -8
BITMAP
C000
C000
C000
C000
C380
C700
CE00
DC00
F000
F000
F800
DC00
CE00
C700
C380
0040
0000
3800
3800
3800
1800
1000
3000
ENDCHAR
STARTCHAR 0138
ENCODING 312
SWIDTH 571 0
DWIDTH 12 0
BBX 10 11 2 0
BITMAP
C380
C700
CE00
D800
F000
F000
F800
DC00
CE00
C700
C3C0
ENDCHAR
STARTCHAR 013F
ENCODING 319
SWIDTH 571 0
DWIDTH 12 0
BBX 10 15 2 0
BITMAP
C000
C000
C000
C000
C000
C600
C600
C600
C000
C000
C000
C000
C000
FFC0
FFC0
ENDCHAR
STARTCHAR 0140
ENCODING 320
SWIDTH 476 0
DWIDTH 10 0
BBX 7 15 2 0
BITMAP
C0
C0
C0
C0
C0
CE
CE
CE
C0
C0
C0
C0
C0
C0
C0
ENDCHAR
STARTCHAR 0141
ENCODING 321
SWIDTH 619 0
DWIDTH 13 0
BBX 12 15 0 0
BITMAP
3000
3000
3000
3000
3000
3100
3700
3E00
F000
B000
3000
3000
3000
3FF0
3FF0
ENDCHAR
STARTCHAR 0142
ENCODING 322
SWIDTH 333 0
DWIDTH 7 0
BBX 7 15 0 0
BITMAP
30
30
30
30
30
30
36
3E
F0
F0
30
30
30
30
30
ENDCHAR
STARTCHAR 0143
ENCODING 323
SWIDTH 809 0
DWIDTH 17 0
BBX 13 19 2 0
BITMAP
01C0
0300
0400
0000
C018
E018
F018
F018
D818
CC18
CE18
C718
C318
C198
C1D8
C0F8
C078
C038
C038
ENDCHAR
STARTCHAR 0144
ENCODING 324
SWIDTH 619 0
DWIDTH 13 0
BBX 9 15 2 0
BITMAP
0F00
1C00
0000
0000
FF80
FF80
C180
C180
C180
C180
C180
C180
C180
C180
C180
ENDCHAR
STARTCHAR 0152
ENCODING 338
SWIDTH 1095 0
DWIDTH 23 0
BBX 20 15 2 0
BITMAP
7FFFF0
FFFFF0
C06000
C06000
C06000
C06000
C06000
C07FE0
C07FE0
C06000
C06000
C06000
C06000
FFFFF0
7FFFF0
ENDCHAR
STARTCHAR 0153
ENCODING 339
SWIDTH 952 0
DWIDTH 20 0
BBX 16 11 2 0
BITMAP
FF7F
FFFF
C183
C183
C183
C1FF
C1FF
C180
C180
FFFF
FF7F
ENDCHAR
STARTCHAR 0154
ENCODING 340
SWIDTH 714 0
DWIDTH 15 0
BBX 12 19 2 0
BITMAP
0380
0600
0800
0000
FFC0
FFE0
C060
C060
C070
C060
C060
FFE0
FFC0
C180
C1C0
C0C0
C0C0
C060
C070
ENDCHAR
STARTCHAR 0156
ENCODING 342
SWIDTH 714 0
DWIDTH 15 0
BBX 12 23 2 -8
BITMAP
FFC0
FFE0
C060
C060
C070
C060
C060
FFE0
FFC0
C180
C1C0
C0C0
C0E0
C060
C060
0010
0000
0E00
0E00
0E00
0600
0400
0C00
ENDCHAR
STARTCHAR 0157
ENCODING 343
SWIDTH 523 0
DWIDTH 11 0
BBX 8 19 2 -8
BITMAP
FE
FF
C3
C3
C0
C0
C0
C0
C0
C0
C0
00
00
E0
E0
E0
40
C0
80
ENDCHAR
STARTCHAR 0158
ENCODING 344
SWIDTH 714 0
DWIDTH 15 0
BBX 12 19 2 0
BITMAP
3980
1F00
0E00
0000
FFC0
FFE0
C060
C060
C070
C060
C060
FFE0
FFC0
C180
C1C0
C0C0
C0C0
C060
C070
ENDCHAR
STARTCHAR 0159
ENCODING 345
SWIDTH 523 0
DWIDTH 11 0
BBX 8 15 2 0
BITMAP
E6
3C
38
00
FE
FF
C3
C3
C0
C0
C0
C0
C0
C0
C0
ENDCHAR
STARTCHAR 0160
ENCODING 352
SWIDTH 714 0
DWIDTH 15 0
BBX 11 19 2 0
BITMAP
3980
1F00
0E00
0000
7FC0
FFE0
C060
C060
C000
C000
C000
FFE0
7FE0
0060
0060
C060
C060
FFE0
FFE0
ENDCHAR
STARTCHAR 0161
ENCODING 353
SWIDTH 571 0
DWIDTH 12 0
BBX 9 15 1 0
BITMAP
7380
1E00
0C00
0000
7F80
7F80
C000
C000
7F80
7F80
0180
0180
0180
FF80
FF80
ENDCHAR
STARTCHAR 0178
ENCODING 376
SWIDTH 666 0
DWIDTH 14 0
BBX 14 19 0 0
BITMAP
0CC0
0CC0
0000
0000
E01C
7018
3030
3870
1860
0CE0
0EC0
0780
0380
0300
0300
0300
0300
0300
0300
ENDCHAR
STARTCHAR 017D
ENCODING 381
SWIDTH 666 0
DWIDTH 14 0
BBX 12 19 1 0
BITMAP
39C0
0F00
0600
0000
7FF0
7FF0
00E0
00C0
01C0
0380
0300
0600
0E00
0C00
1800
3800
3000
7FF0
FFF0
ENDCHAR
STARTCHAR 017E
ENCODING 382
SWIDTH 571 0
DWIDTH 12 0
BBX 10 15 1 0
BITMAP
7380
1E00
0C00
0000
FFC0
FF80
0300
0600
0E00
0C00
1800
3800
3000
7FC0
FFC0
ENDCHAR
STARTCHAR 0192
ENCODING 402
SWIDTH 476 0
DWIDTH 10 0
BBX 11 19 -1 -4
BITMAP
01E0
03E0
0300
0600
0600
1FC0
3FC0
0600
0600
0C00
0C00
0C00
0C00
0C00
1800
1800
1800
F800
F000
ENDCHAR
STARTCHAR 02C6
ENCODING 710
SWIDTH 476 0
DWIDTH 10 0
BBX 8 2 1 13
BITMAP
3C
E7
ENDCHAR
STARTCHAR 02C7
ENCODING 711
SWIDTH 476 0
DWIDTH 10 0
BBX 8 2 1 13
BITMAP
E7
3C
ENDCHAR
STARTCHAR 02D8
ENCODING 728
SWIDTH 476 0
DWIDTH 10 0
BBX 8 3 1 13
BITMAP
C3
7E
3C
ENDCHAR
STARTCHAR 02D9
ENCODING 729
SWIDTH 238 0
DWIDTH 5 0
BBX 3 3 1 13
BITMAP
E0
E0
E0
ENDCHAR
STARTCHAR 02DA
ENCODING 730
SWIDTH 523 0
DWIDTH 11 0
BBX 6 5 2 13
BITMAP
78
CC
CC
CC
78
ENDCHAR
STARTCHAR 02DB
ENCODING 731
SWIDTH 333 0
DWIDTH 7 0
BBX 5 6 1 -6
BITMAP
60
40
C0
C8
F8
70
ENDCHAR
STARTCHAR 02DC
ENCODING 732
SWIDTH 523 0
DWIDTH 11 0
BBX 8 3 1 13
BITMAP
71
7F
CE
ENDCHAR
STARTCHAR 02DD
ENCODING 733
SWIDTH 571 0
DWIDTH 12 0
BBX 10 2 1 13
BITMAP
3FC0
E700
ENDCHAR
STARTCHAR 0307
ENCODING 775
SWIDTH 238 0
DWIDTH 5 0
BBX 3 3 1 13
BITMAP
E0
E0
E0
ENDCHAR
STARTCHAR 2013
ENCODING 8211
SWIDTH 809 0
DWIDTH 17 0
BBX 13 2 2 5
BITMAP
FFF8
FFF8
ENDCHAR
STARTCHAR 2014
ENCODING 8212
SWIDTH 1000 0
DWIDTH 21 0
BBX 17 2 2 5
BITMAP
FFFF80
FFFF80
ENDCHAR
STARTCHAR 2018
ENCODING 8216
SWIDTH 285 0
DWIDTH 6 0
BBX 3 6 2 9
BITMAP
60
C0
80
E0
E0
E0
ENDCHAR
STARTCHAR 2019
ENCODING 8217
SWIDTH 285 0
DWIDTH 6 0
BBX 3 6 2 9
BITMAP
E0
E0
E0
40
C0
80
ENDCHAR
STARTCHAR 201A
ENCODING 8218
SWIDTH 285 0
DWIDTH 6 0
BBX 3 6 2 -3
BITMAP
E0
E0
E0
40
C0
80
ENDCHAR
STARTCHAR 201C
ENCODING 8220
SWIDTH 523 0
DWIDTH 11 0
BBX 7 6 2 9
BITMAP
66
C4
8C
EE
EE
EE
ENDCHAR
STARTCHAR 201D
ENCODING 8221
SWIDTH 523 0
DWIDTH 11 0
BBX 7 6 2 9
BITMAP
EE
EE
EE
46
C4
8C
ENDCHAR
STARTCHAR 201E
ENCODING 8222
SWIDTH 523 0
DWIDTH 11 0
BBX 7 6 2 -3
BITMAP
EE
EE
EE
46
C4
8C
ENDCHAR
STARTCHAR 2020
ENCODING 8224
SWIDTH 619 0
DWIDTH 13 0
BBX 10 19 1 -4
BITMAP
0C00
0C00
0C00
0C00
0C00
FFC0
FFC0
0C00
0C00
0C00
0C00
0C00
0C00
0C00
0C00
0C00
0C00
0C00
0C00
ENDCHAR
STARTCHAR 2021
ENCODING 8225
SWIDTH 619 0
DWIDTH 13 0
BBX 10 19 1 -4
BITMAP
0C00
0C00
0C00
0C00
0C00
FFC0
FFC0
0C00
0C00
0C00
0C00
0C00
0C00
FFC0
FFC0
0C00
0C00
0C00
0C00
ENDCHAR
STARTCHAR 2022
ENCODING 8226
SWIDTH 476 0
DWIDTH 10 0
BBX 8 7 1 4
BITMAP
3C
7E
FE
FF
FE
7E
3C
ENDCHAR
STARTCHAR 2026
ENCODING 8230
SWIDTH 809 0
DWIDTH 17 0
BBX 13 3 2 0
BITMAP
E738
E738
E738
ENDCHAR
STARTCHAR 2039
ENCODING 8249
SWIDTH 333 0
DWIDTH 7 0
BBX 5 10 1 0
BITMAP
08
18
30
60
E0
E0
60
30
18
08
ENDCHAR
STARTCHAR 203A
ENCODING 8250
SWIDTH 333 0
DWIDTH 7 0
BBX 5 10 1 0
BITMAP
80
C0
60
30
18
18
30
60
C0
80
ENDCHAR
STARTCHAR 2044
ENCODING 8260
SWIDTH 571 0
DWIDTH 12 0
BBX 12 15 0 0
BITMAP
0030
0060
00C0
0080
0180
0300
0200
0600
0C00
0800
1800
3000
2000
6000
C000
ENDCHAR
STARTCHAR 20AC
ENCODING 8364
SWIDTH 761 0
DWIDTH 16 0
BBX 14 15 1 0
BITMAP
1FF8
3FFC
300C
300C
3000
FFE0
FFC0
3000
FF80
FF00
3000
300C
300C
3FFC
1FF8
ENDCHAR
STARTCHAR 2122
ENCODING 8482
SWIDTH 904 0
DWIDTH 19 0
BBX 16 7 1 8
BITMAP
FC83
30C3
30E7
30AF
30BF
309B
3093
ENDCHAR
STARTCHAR 2212
ENCODING 8722
SWIDTH 714 0
DWIDTH 15 0
BBX 11 2 2 5
BITMAP
FFE0
FFE0
ENDCHAR
STARTCHAR F6BE
ENCODING 63166
SWIDTH 285 0
DWIDTH 6 0
BBX 4 15 0 -4
BITMAP
30
30
30
30
30
30
30
30
30
30
30
30
30
F0
E0
ENDCHAR
STARTCHAR F6C3
ENCODING 63171
SWIDTH 285 0
DWIDTH 6 0
BBX 3 6 1 -8
BITMAP
E0
E0
E0
20
60
C0
ENDCHAR
ENDFONT
